<svg xmlns="http://www.w3.org/2000/svg" xmlns:xlink="http://www.w3.org/1999/xlink" viewBox="0 0 275 275"><defs><style>.cls-1,.cls-10,.cls-11,.cls-12,.cls-13,.cls-14,.cls-15,.cls-16,.cls-17,.cls-18,.cls-19,.cls-2,.cls-20,.cls-21,.cls-22,.cls-23,.cls-24,.cls-25,.cls-26,.cls-27,.cls-28,.cls-29,.cls-3,.cls-4,.cls-5,.cls-6,.cls-7,.cls-8,.cls-9{fill:none;stroke-miterlimit:10;}.cls-1{stroke:url(#linear-gradient);}.cls-2{stroke:url(#linear-gradient-2);}.cls-3{stroke:url(#linear-gradient-3);}.cls-4{stroke:url(#linear-gradient-4);}.cls-5{stroke:url(#linear-gradient-5);}.cls-6{stroke:url(#linear-gradient-6);}.cls-7{stroke:url(#linear-gradient-7);}.cls-8{stroke:url(#linear-gradient-8);}.cls-9{stroke:url(#linear-gradient-9);}.cls-10{stroke:url(#linear-gradient-10);}.cls-11{stroke:url(#linear-gradient-11);}.cls-12{stroke:url(#linear-gradient-12);}.cls-13{stroke:url(#linear-gradient-13);}.cls-14{stroke:url(#linear-gradient-14);}.cls-15{stroke:url(#linear-gradient-15);}.cls-16{stroke:url(#linear-gradient-16);}.cls-17{stroke:url(#linear-gradient-17);}.cls-18{stroke:url(#linear-gradient-18);}.cls-19{stroke:url(#linear-gradient-19);}.cls-20{stroke:url(#linear-gradient-20);}.cls-21{stroke:url(#linear-gradient-21);}.cls-22{stroke:url(#linear-gradient-22);}.cls-23{stroke:url(#linear-gradient-23);}.cls-24{stroke:url(#linear-gradient-24);}.cls-25{stroke:url(#linear-gradient-25);}.cls-26{stroke:url(#linear-gradient-26);}.cls-27{stroke:url(#linear-gradient-27);}.cls-28{stroke:url(#linear-gradient-28);}.cls-29{stroke:url(#linear-gradient-29);}</style><linearGradient id="linear-gradient" x1="0.01" y1="139.16" x2="274.99" y2="135.84" gradientTransform="matrix(-0.23, -0.02, 0.02, -0.22, 166.72, 170.81)" gradientUnits="userSpaceOnUse"><stop offset="0" stop-color="#ff0007"/><stop offset="0.03" stop-color="#fb043b"/><stop offset="0.06" stop-color="#f6096e"/><stop offset="0.09" stop-color="#f30c9b"/><stop offset="0.12" stop-color="#ef10bf"/><stop offset="0.15" stop-color="#ed12db"/><stop offset="0.19" stop-color="#eb14ef"/><stop offset="0.22" stop-color="#ea15fb"/><stop offset="0.25" stop-color="#ea15ff"/><stop offset="0.29" stop-color="#d813fb"/><stop offset="0.36" stop-color="#aa0df0"/><stop offset="0.47" stop-color="#6105de"/><stop offset="0.52" stop-color="#3900d4"/><stop offset="0.56" stop-color="#3020db"/><stop offset="0.67" stop-color="#1a72ec"/><stop offset="0.77" stop-color="#00d0ff"/><stop offset="1" stop-color="#00ffc2"/></linearGradient><linearGradient id="linear-gradient-2" x1="0.01" y1="139.16" x2="274.99" y2="135.84" gradientTransform="matrix(0.03, -0.26, 0.22, 0.04, 102.55, 167.52)" xlink:href="#linear-gradient"/><linearGradient id="linear-gradient-3" x1="0.01" y1="139.16" x2="274.99" y2="135.84" gradientTransform="matrix(0.05, -0.28, 0.22, 0.06, 101.01, 168.01)" xlink:href="#linear-gradient"/><linearGradient id="linear-gradient-4" x1="0.01" y1="139.16" x2="274.99" y2="135.84" gradientTransform="matrix(0.06, -0.31, 0.22, 0.09, 99.54, 168.1)" xlink:href="#linear-gradient"/><linearGradient id="linear-gradient-5" x1="0.01" y1="139.16" x2="274.99" y2="135.84" gradientTransform="matrix(0.07, -0.33, 0.21, 0.11, 98.12, 167.73)" xlink:href="#linear-gradient"/><linearGradient id="linear-gradient-6" x1="0.01" y1="139.16" x2="274.99" y2="135.84" gradientTransform="matrix(0.09, -0.36, 0.21, 0.15, 96.71, 166.82)" xlink:href="#linear-gradient"/><linearGradient id="linear-gradient-7" x1="0.01" y1="139.16" x2="274.99" y2="135.84" gradientTransform="matrix(0.1, -0.39, 0.21, 0.18, 95.28, 165.3)" xlink:href="#linear-gradient"/><linearGradient id="linear-gradient-8" x1="0.01" y1="139.16" x2="274.99" y2="135.84" gradientTransform="matrix(0.11, -0.41, 0.21, 0.22, 93.79, 163.13)" xlink:href="#linear-gradient"/><linearGradient id="linear-gradient-9" x1="0.01" y1="139.16" x2="274.99" y2="135.84" gradientTransform="matrix(0.13, -0.43, 0.2, 0.27, 92.22, 160.24)" xlink:href="#linear-gradient"/><linearGradient id="linear-gradient-10" x1="0.01" y1="139.16" x2="274.99" y2="135.84" gradientTransform="matrix(0.14, -0.45, 0.2, 0.31, 90.52, 156.6)" xlink:href="#linear-gradient"/><linearGradient id="linear-gradient-11" x1="0.01" y1="139.16" x2="274.99" y2="135.84" gradientTransform="matrix(0.15, -0.47, 0.2, 0.36, 88.67, 152.19)" xlink:href="#linear-gradient"/><linearGradient id="linear-gradient-12" x1="0.01" y1="139.16" x2="274.99" y2="135.84" gradientTransform="matrix(0.17, -0.48, 0.2, 0.41, 86.62, 146.99)" xlink:href="#linear-gradient"/><linearGradient id="linear-gradient-13" x1="0.01" y1="139.16" x2="274.99" y2="135.84" gradientTransform="matrix(0.19, -0.49, 0.2, 0.47, 84.36, 141)" xlink:href="#linear-gradient"/><linearGradient id="linear-gradient-14" x1="0.01" y1="139.16" x2="274.99" y2="135.84" gradientTransform="matrix(0.21, -0.5, 0.2, 0.52, 81.85, 134.23)" xlink:href="#linear-gradient"/><linearGradient id="linear-gradient-15" x1="0.01" y1="139.16" x2="274.99" y2="135.84" gradientTransform="matrix(0.23, -0.5, 0.2, 0.57, 79.06, 126.72)" xlink:href="#linear-gradient"/><linearGradient id="linear-gradient-16" x1="0.01" y1="139.16" x2="274.99" y2="135.84" gradientTransform="matrix(0.25, -0.49, 0.2, 0.63, 75.96, 118.49)" xlink:href="#linear-gradient"/><linearGradient id="linear-gradient-17" x1="0.01" y1="139.16" x2="274.99" y2="135.84" gradientTransform="matrix(0.28, -0.48, 0.19, 0.68, 72.53, 109.63)" xlink:href="#linear-gradient"/><linearGradient id="linear-gradient-18" x1="0.01" y1="139.16" x2="274.99" y2="135.84" gradientTransform="matrix(0.31, -0.46, 0.19, 0.73, 68.73, 100.19)" xlink:href="#linear-gradient"/><linearGradient id="linear-gradient-19" x1="0.01" y1="139.16" x2="274.99" y2="135.84" gradientTransform="matrix(0.34, -0.44, 0.19, 0.78, 64.55, 90.29)" xlink:href="#linear-gradient"/><linearGradient id="linear-gradient-20" x1="0.01" y1="139.16" x2="274.99" y2="135.84" gradientTransform="matrix(0.38, -0.41, 0.19, 0.83, 59.97, 80.01)" xlink:href="#linear-gradient"/><linearGradient id="linear-gradient-21" x1="0.01" y1="139.16" x2="274.99" y2="135.84" gradientTransform="matrix(0.42, -0.37, 0.18, 0.87, 55, 69.5)" xlink:href="#linear-gradient"/><linearGradient id="linear-gradient-22" x1="0.01" y1="139.16" x2="274.99" y2="135.84" gradientTransform="matrix(0.47, -0.33, 0.17, 0.9, 49.64, 58.87)" xlink:href="#linear-gradient"/><linearGradient id="linear-gradient-23" x1="0.01" y1="139.16" x2="274.99" y2="135.84" gradientTransform="matrix(0.52, -0.28, 0.16, 0.93, 43.94, 48.28)" xlink:href="#linear-gradient"/><linearGradient id="linear-gradient-24" x1="0.01" y1="139.16" x2="274.99" y2="135.84" gradientTransform="matrix(0.58, -0.23, 0.14, 0.96, 37.95, 37.84)" xlink:href="#linear-gradient"/><linearGradient id="linear-gradient-25" x1="0.01" y1="139.16" x2="274.99" y2="135.84" gradientTransform="matrix(0.65, -0.18, 0.12, 0.98, 31.78, 27.69)" xlink:href="#linear-gradient"/><linearGradient id="linear-gradient-26" x1="0.01" y1="139.16" x2="274.99" y2="135.84" gradientTransform="matrix(0.73, -0.12, 0.09, 0.99, 25.56, 17.95)" xlink:href="#linear-gradient"/><linearGradient id="linear-gradient-27" x1="0.01" y1="139.16" x2="274.99" y2="135.84" gradientTransform="matrix(0.81, -0.06, 0.05, 1, 19.48, 8.7)" xlink:href="#linear-gradient"/><linearGradient id="linear-gradient-28" x1="0.01" y1="139.16" x2="274.99" y2="135.84" gradientTransform="translate(13.75) scale(0.9 1)" xlink:href="#linear-gradient"/><linearGradient id="linear-gradient-29" x1="0.01" y1="139.16" x2="274.99" y2="135.84" gradientTransform="matrix(1, 0, 0, 1, 0, 0)" xlink:href="#linear-gradient"/></defs><g id="Layer_2" data-name="Layer 2"><g id="Layer_1-2" data-name="Layer 1"><ellipse class="cls-1" cx="137.5" cy="137.5" rx="32.15" ry="30.55" transform="matrix(1, -0.03, 0.03, 1, -4.26, 4.4)"/><ellipse class="cls-2" cx="137.5" cy="137.5" rx="30.56" ry="35.71" transform="translate(-3.99 270.89) rotate(-88.31)"/><ellipse class="cls-3" cx="137.5" cy="137.5" rx="30.6" ry="39.63" transform="translate(-11.79 262.1) rotate(-84.85)"/><ellipse class="cls-4" cx="137.5" cy="137.5" rx="30.71" ry="43.88" transform="translate(-18.96 252.97) rotate(-81.43)"/><ellipse class="cls-5" cx="137.5" cy="137.5" rx="30.89" ry="48.47" transform="translate(-25.47 243.59) rotate(-78.06)"/><ellipse class="cls-6" cx="137.5" cy="137.5" rx="31.17" ry="53.38" transform="translate(-31.3 234.04) rotate(-74.77)"/><ellipse class="cls-7" cx="137.5" cy="137.5" rx="31.56" ry="58.56" transform="translate(-36.46 224.39) rotate(-71.54)"/><ellipse class="cls-8" cx="137.5" cy="137.5" rx="32.1" ry="63.99" transform="translate(-40.98 214.69) rotate(-68.39)"/><ellipse class="cls-9" cx="137.5" cy="137.5" rx="32.78" ry="69.61" transform="matrix(0.42, -0.91, 0.91, 0.42, -44.87, 204.98)"/><ellipse class="cls-10" cx="137.5" cy="137.5" rx="33.64" ry="75.37" transform="translate(-48.17 195.28) rotate(-62.29)"/><ellipse class="cls-11" cx="137.5" cy="137.5" rx="34.69" ry="81.21" transform="translate(-50.91 185.6) rotate(-59.32)"/><ellipse class="cls-12" cx="137.5" cy="137.5" rx="35.95" ry="87.07" transform="translate(-53.11 175.95) rotate(-56.41)"/><ellipse class="cls-13" cx="137.5" cy="137.5" rx="37.45" ry="92.87" transform="translate(-54.81 166.32) rotate(-53.52)"/><ellipse class="cls-14" cx="137.5" cy="137.5" rx="39.22" ry="98.54" transform="translate(-56.01 156.68) rotate(-50.66)"/><ellipse class="cls-15" cx="137.5" cy="137.5" rx="41.28" ry="104.01" transform="translate(-56.72 147.04) rotate(-47.81)"/><ellipse class="cls-16" cx="137.5" cy="137.5" rx="43.68" ry="109.21" transform="translate(-56.95 137.35) rotate(-44.96)"/><ellipse class="cls-17" cx="137.5" cy="137.5" rx="46.47" ry="114.07" transform="translate(-56.7 127.62) rotate(-42.09)"/><ellipse class="cls-18" cx="137.5" cy="137.5" rx="49.69" ry="118.54" transform="translate(-55.95 117.81) rotate(-39.19)"/><ellipse class="cls-19" cx="137.5" cy="137.5" rx="53.4" ry="122.55" transform="translate(-54.69 107.92) rotate(-36.25)"/><ellipse class="cls-20" cx="137.5" cy="137.5" rx="57.68" ry="126.07" transform="translate(-52.89 97.94) rotate(-33.26)"/><ellipse class="cls-21" cx="137.5" cy="137.5" rx="62.6" ry="129.07" transform="matrix(0.86, -0.5, 0.5, 0.86, -50.51, 87.87)"/><ellipse class="cls-22" cx="137.5" cy="137.5" rx="68.25" ry="131.54" transform="translate(-47.54 77.72) rotate(-27.1)"/><ellipse class="cls-23" cx="137.5" cy="137.5" rx="74.72" ry="133.49" transform="translate(-43.93 67.52) rotate(-23.91)"/><ellipse class="cls-24" cx="137.5" cy="137.5" rx="82.13" ry="134.95" transform="translate(-39.65 57.32) rotate(-20.65)"/><ellipse class="cls-25" cx="137.5" cy="137.5" rx="90.58" ry="135.95" transform="translate(-34.7 47.16) rotate(-17.32)"/><ellipse class="cls-26" cx="137.5" cy="137.5" rx="100.18" ry="136.58" transform="translate(-29.05 37.13) rotate(-13.92)"/><ellipse class="cls-27" cx="137.5" cy="137.5" rx="111.06" ry="136.89" transform="translate(-22.72 27.31) rotate(-10.48)"/><ellipse class="cls-28" cx="137.5" cy="137.5" rx="123.3" ry="137" transform="translate(-15.73 17.78) rotate(-7)"/><circle class="cls-29" cx="137.5" cy="137.5" r="137"/></g></g></svg>