<svg xmlns="http://www.w3.org/2000/svg" xmlns:xlink="http://www.w3.org/1999/xlink" viewBox="0 0 396.06 393.22"><defs><style>.cls-1,.cls-10,.cls-11,.cls-12,.cls-13,.cls-14,.cls-15,.cls-16,.cls-17,.cls-18,.cls-19,.cls-2,.cls-20,.cls-21,.cls-22,.cls-23,.cls-24,.cls-25,.cls-26,.cls-27,.cls-28,.cls-29,.cls-3,.cls-30,.cls-31,.cls-32,.cls-33,.cls-34,.cls-35,.cls-36,.cls-37,.cls-38,.cls-39,.cls-4,.cls-40,.cls-41,.cls-42,.cls-43,.cls-44,.cls-45,.cls-46,.cls-47,.cls-48,.cls-49,.cls-5,.cls-6,.cls-7,.cls-8,.cls-9{fill:none;stroke-miterlimit:10;}.cls-1,.cls-10,.cls-11,.cls-12,.cls-13,.cls-14,.cls-15,.cls-16,.cls-17,.cls-18,.cls-19,.cls-2,.cls-20,.cls-21,.cls-22,.cls-23,.cls-24,.cls-25,.cls-26,.cls-27,.cls-28,.cls-29,.cls-3,.cls-30,.cls-31,.cls-32,.cls-33,.cls-34,.cls-35,.cls-36,.cls-37,.cls-38,.cls-39,.cls-4,.cls-40,.cls-41,.cls-42,.cls-43,.cls-44,.cls-45,.cls-46,.cls-47,.cls-48,.cls-5,.cls-6,.cls-7,.cls-8,.cls-9{stroke-linecap:round;}.cls-1{stroke:url(#linear-gradient);}.cls-11,.cls-14,.cls-17,.cls-2,.cls-5,.cls-8{stroke-dasharray:0 7.02;}.cls-2{stroke:url(#linear-gradient-2);}.cls-3{stroke:url(#linear-gradient-3);}.cls-4{stroke:url(#linear-gradient-4);}.cls-5{stroke:url(#linear-gradient-5);}.cls-6{stroke:url(#linear-gradient-6);}.cls-7{stroke:url(#linear-gradient-7);}.cls-8{stroke:url(#linear-gradient-8);}.cls-9{stroke:url(#linear-gradient-9);}.cls-10{stroke:url(#linear-gradient-10);}.cls-11{stroke:url(#linear-gradient-11);}.cls-12{stroke:url(#linear-gradient-12);}.cls-13{stroke:url(#linear-gradient-13);}.cls-14{stroke:url(#linear-gradient-14);}.cls-15{stroke:url(#linear-gradient-15);}.cls-16{stroke:url(#linear-gradient-16);}.cls-17{stroke:url(#linear-gradient-17);}.cls-18{stroke:url(#linear-gradient-18);}.cls-19{stroke:url(#linear-gradient-19);}.cls-20,.cls-23,.cls-26,.cls-29,.cls-32,.cls-35{stroke-dasharray:0 7;}.cls-20{stroke:url(#linear-gradient-20);}.cls-21{stroke:url(#linear-gradient-21);}.cls-22{stroke:url(#linear-gradient-22);}.cls-23{stroke:url(#linear-gradient-23);}.cls-24{stroke:url(#linear-gradient-24);}.cls-25{stroke:url(#linear-gradient-25);}.cls-26{stroke:url(#linear-gradient-26);}.cls-27{stroke:url(#linear-gradient-27);}.cls-28{stroke:url(#linear-gradient-28);}.cls-29{stroke:url(#linear-gradient-29);}.cls-30{stroke:url(#linear-gradient-30);}.cls-31{stroke:url(#linear-gradient-31);}.cls-32{stroke:url(#linear-gradient-32);}.cls-33{stroke:url(#linear-gradient-33);}.cls-34{stroke:url(#linear-gradient-34);}.cls-35{stroke:url(#linear-gradient-35);}.cls-36{stroke:url(#linear-gradient-36);}.cls-37,.cls-38,.cls-39,.cls-40,.cls-41,.cls-42,.cls-43,.cls-44,.cls-45,.cls-46,.cls-47,.cls-48,.cls-49{stroke-width:0.25px;}.cls-37{stroke:url(#linear-gradient-37);}.cls-38{stroke:url(#linear-gradient-38);}.cls-39{stroke:url(#linear-gradient-39);}.cls-40{stroke:url(#linear-gradient-40);}.cls-41{stroke:url(#linear-gradient-41);}.cls-42{stroke:url(#linear-gradient-42);}.cls-43{stroke:url(#linear-gradient-43);}.cls-44{stroke:url(#linear-gradient-44);}.cls-45{stroke:url(#linear-gradient-45);}.cls-46{stroke:url(#linear-gradient-46);}.cls-47{stroke:url(#linear-gradient-47);}.cls-48{stroke:url(#linear-gradient-48);}.cls-49{stroke:#15deff;}</style><linearGradient id="linear-gradient" x1="97.71" y1="173.19" x2="2.46" y2="8.21" gradientUnits="userSpaceOnUse"><stop offset="0" stop-color="#ff7b14"/><stop offset="0.23" stop-color="#fe7b18" stop-opacity="0.99"/><stop offset="0.39" stop-color="#fa7b25" stop-opacity="0.96"/><stop offset="0.53" stop-color="#f47c3c" stop-opacity="0.91"/><stop offset="0.65" stop-color="#eb7c5c" stop-opacity="0.85"/><stop offset="0.77" stop-color="#e07d85" stop-opacity="0.76"/><stop offset="0.88" stop-color="#d27eb8" stop-opacity="0.65"/><stop offset="0.98" stop-color="#c17ff3" stop-opacity="0.52"/><stop offset="1" stop-color="#be7fff" stop-opacity="0.5"/></linearGradient><linearGradient id="linear-gradient-2" x1="240.33" y1="90.05" x2="145.73" y2="-73.79" xlink:href="#linear-gradient"/><linearGradient id="linear-gradient-3" x1="381.41" y1="9" x2="286.16" y2="-155.98" xlink:href="#linear-gradient"/><linearGradient id="linear-gradient-4" x1="104.62" y1="247.29" x2="9.37" y2="82.32" xlink:href="#linear-gradient"/><linearGradient id="linear-gradient-5" x1="246.24" y1="168.34" x2="150" y2="1.65" xlink:href="#linear-gradient"/><linearGradient id="linear-gradient-6" x1="384.37" y1="88.9" x2="289.12" y2="-76.08" xlink:href="#linear-gradient"/><linearGradient id="linear-gradient-7" x1="98.48" y1="319.96" x2="3.23" y2="154.98" xlink:href="#linear-gradient"/><linearGradient id="linear-gradient-8" x1="236.52" y1="241.97" x2="140.74" y2="76.08" xlink:href="#linear-gradient"/><linearGradient id="linear-gradient-9" x1="371.37" y1="164.51" x2="276.12" y2="-0.46" xlink:href="#linear-gradient"/><linearGradient id="linear-gradient-10" x1="98.13" y1="395.73" x2="2.88" y2="230.75" xlink:href="#linear-gradient"/><linearGradient id="linear-gradient-11" x1="248.66" y1="315.13" x2="150.78" y2="145.61" xlink:href="#linear-gradient"/><linearGradient id="linear-gradient-12" x1="393.74" y1="231.79" x2="298.49" y2="66.81" xlink:href="#linear-gradient"/><linearGradient id="linear-gradient-13" x1="95.59" y1="473.7" x2="0.34" y2="308.72" xlink:href="#linear-gradient"/><linearGradient id="linear-gradient-14" x1="237.99" y1="388.5" x2="144.04" y2="225.77" xlink:href="#linear-gradient"/><linearGradient id="linear-gradient-15" x1="379.01" y1="307.53" x2="283.76" y2="142.56" xlink:href="#linear-gradient"/><linearGradient id="linear-gradient-16" x1="97.62" y1="551.63" x2="2.37" y2="386.66" xlink:href="#linear-gradient"/><linearGradient id="linear-gradient-17" x1="240.56" y1="468.1" x2="145.94" y2="304.2" xlink:href="#linear-gradient"/><linearGradient id="linear-gradient-18" x1="381.33" y1="387.42" x2="286.08" y2="222.44" xlink:href="#linear-gradient"/><linearGradient id="linear-gradient-19" x1="544.83" y1="292.48" x2="380.65" y2="8.11" xlink:href="#linear-gradient"/><linearGradient id="linear-gradient-20" x1="462.05" y1="339.74" x2="298.44" y2="56.36" xlink:href="#linear-gradient"/><linearGradient id="linear-gradient-21" x1="381.04" y1="386.85" x2="216.86" y2="102.49" xlink:href="#linear-gradient"/><linearGradient id="linear-gradient-22" x1="466.77" y1="289.09" x2="302.59" y2="4.73" xlink:href="#linear-gradient"/><linearGradient id="linear-gradient-23" x1="383.51" y1="333.65" x2="221.8" y2="53.58" xlink:href="#linear-gradient"/><linearGradient id="linear-gradient-24" x1="303.27" y1="380.26" x2="139.1" y2="95.9" xlink:href="#linear-gradient"/><linearGradient id="linear-gradient-25" x1="389.22" y1="288.01" x2="225.04" y2="3.65" xlink:href="#linear-gradient"/><linearGradient id="linear-gradient-26" x1="305.51" y1="327.12" x2="145.27" y2="49.57" xlink:href="#linear-gradient"/><linearGradient id="linear-gradient-27" x1="226.85" y1="372.49" x2="62.67" y2="88.12" xlink:href="#linear-gradient"/><linearGradient id="linear-gradient-28" x1="317.52" y1="304.82" x2="153.34" y2="20.46" xlink:href="#linear-gradient"/><linearGradient id="linear-gradient-29" x1="232.74" y1="340.21" x2="74.23" y2="65.66" xlink:href="#linear-gradient"/><linearGradient id="linear-gradient-30" x1="154.69" y1="385.41" x2="-9.49" y2="101.04" xlink:href="#linear-gradient"/><linearGradient id="linear-gradient-31" x1="224" y1="305.76" x2="59.82" y2="21.39" xlink:href="#linear-gradient"/><linearGradient id="linear-gradient-32" x1="152.64" y1="350.93" x2="-13.19" y2="63.71" xlink:href="#linear-gradient"/><linearGradient id="linear-gradient-33" x1="80.44" y1="392.94" x2="-83.74" y2="108.57" xlink:href="#linear-gradient"/><linearGradient id="linear-gradient-34" x1="166.89" y1="292.6" x2="2.71" y2="8.24" xlink:href="#linear-gradient"/><linearGradient id="linear-gradient-35" x1="84.26" y1="339.91" x2="-79.48" y2="56.31" xlink:href="#linear-gradient"/><linearGradient id="linear-gradient-36" x1="3.09" y1="387.02" x2="-161.08" y2="102.65" xlink:href="#linear-gradient"/><linearGradient id="linear-gradient-37" x1="239.36" y1="90.42" x2="144.44" y2="-73.99" xlink:href="#linear-gradient"/><linearGradient id="linear-gradient-38" x1="245.04" y1="168.93" x2="148.58" y2="1.86" xlink:href="#linear-gradient"/><linearGradient id="linear-gradient-39" x1="235.33" y1="242.83" x2="139.32" y2="76.53" xlink:href="#linear-gradient"/><linearGradient id="linear-gradient-40" x1="247.29" y1="316.23" x2="149.29" y2="146.48" xlink:href="#linear-gradient"/><linearGradient id="linear-gradient-41" x1="236.67" y1="389.78" x2="142.67" y2="226.97" xlink:href="#linear-gradient"/><linearGradient id="linear-gradient-42" x1="239.34" y1="469.65" x2="144.42" y2="305.24" xlink:href="#linear-gradient"/><linearGradient id="linear-gradient-43" x1="463.27" y1="339.63" x2="299.19" y2="55.42" xlink:href="#linear-gradient"/><linearGradient id="linear-gradient-44" x1="384.52" y1="333.47" x2="221.72" y2="51.5" xlink:href="#linear-gradient"/><linearGradient id="linear-gradient-45" x1="306.07" y1="326.75" x2="145.97" y2="49.44" xlink:href="#linear-gradient"/><linearGradient id="linear-gradient-46" x1="233.09" y1="340.01" x2="74.8" y2="65.85" xlink:href="#linear-gradient"/><linearGradient id="linear-gradient-47" x1="152.91" y1="350.96" x2="-13.09" y2="63.43" xlink:href="#linear-gradient"/><linearGradient id="linear-gradient-48" x1="84.56" y1="339.71" x2="-79.54" y2="55.49" xlink:href="#linear-gradient"/></defs><g id="Layer_2" data-name="Layer 2"><g id="Layer_1-2" data-name="Layer 1"><line class="cls-1" x1="2.71" y1="8.64" x2="2.71" y2="8.64"/><path class="cls-2" d="M9.39,9.53c12.47,2.27,23.54,8.62,35.92,11,19,3.6,36.74-2.35,55.15-6.08a108.33,108.33,0,0,1,26.82-3.27A130.49,130.49,0,0,1,151.11,21c11.82,1.2,27.8-13.92,39-17.34,16.22-4.94,25-.87,40.59,2.44,13.56,2.87,30.78-.48,44.6-.71,34.14-.58,68.17.17,102.22,2.84"/><line class="cls-3" x1="381.16" y1="8.57" x2="381.16" y2="8.57"/><line class="cls-4" x1="9.62" y1="82.75" x2="9.62" y2="82.75"/><path class="cls-5" d="M16.64,83.31c32.94,2.25,65.58,7.55,97.48-2.87a202,202,0,0,1,23.41-7.3,86.49,86.49,0,0,1,22.28,6c12.23,1.3,26.79-8,38.57-10.67,31.58-7.09,48.94,10.6,75.08,24.56,34.37,18.35,70.74-2.46,107-4.84"/><line class="cls-6" x1="384.12" y1="88.46" x2="384.12" y2="88.46"/><line class="cls-7" x1="3.48" y1="155.41" x2="3.48" y2="155.41"/><path class="cls-8" d="M10.53,155.91c34.16,1.93,67.07,7.35,100.91,1.39a39.24,39.24,0,0,1,21.67-.58,117,117,0,0,0,19.06,9.54c10.58,1.19,25.05-6.43,35-9.56,26-8.19,51.37,1.7,78.91.7,33.94-1.23,67.85,2.51,101.53,6.27"/><line class="cls-9" x1="371.12" y1="164.08" x2="371.12" y2="164.08"/><line class="cls-10" x1="3.13" y1="231.18" x2="3.13" y2="231.18"/><path class="cls-11" d="M10.59,231.29c18.18-.76,36.17-3.71,54.32-2.19a173.19,173.19,0,0,0,47.57-2c18.39-3.34,24.88.43,41.44,6.24,16,5.61,29.1,1,45-4.93,15.6-5.86,22.66-9,39-5,15,3.62,28.77,3.71,44.13,3.47,35.89-.55,72,1.27,107.73,4.21"/><line class="cls-12" x1="393.49" y1="231.35" x2="393.49" y2="231.35"/><line class="cls-13" x1="0.59" y1="309.15" x2="0.59" y2="309.15"/><path class="cls-14" d="M7.75,309c34.39-4.87,66.56-13.21,101.85-7.92,16.66,2.5,24.31,12.18,38.8,18.59,11.45,5.07,26.94,7.14,39.39,7.34,13.83.23,26.77-.12,40.53.51,18,.82,29.51-8.95,44.74-16.65,30.36-15.36,69.41-7.15,102.09-4.16"/><line class="cls-15" x1="378.76" y1="307.1" x2="378.76" y2="307.1"/><line class="cls-16" x1="2.62" y1="387.09" x2="2.62" y2="387.09"/><path class="cls-17" d="M9.91,387.34c35.15.77,66.85,10.58,100.11-3.68,30.2-12.94,52.52,12.78,83.36,1.72,15.65-5.62,21.2-13.48,38.69-11.58,15.11,1.63,27.74,5.91,43.67,6a850.11,850.11,0,0,1,101.72,6.68"/><line class="cls-18" x1="381.08" y1="386.98" x2="381.08" y2="386.98"/><line class="cls-19" x1="380.9" y1="8.54" x2="380.9" y2="8.54"/><path class="cls-20" d="M381.45,16c2.08,34.73,2.74,69.45,2.22,104.23q-.18,11.61-.47,23.22-6.07,9.1-11.55,18.58c-5,15.49-.61,26.28,8.57,38.92,11.1,15.3,18.31,15.08,10.62,35.47a105.89,105.89,0,0,0-11.41,18.87q-.35,11.61-.57,23.23c-.69,34.78-.26,69.49,1.69,104.23"/><line class="cls-21" x1="380.79" y1="386.42" x2="380.79" y2="386.42"/><line class="cls-22" x1="302.84" y1="5.16" x2="302.84" y2="5.16"/><path class="cls-23" d="M304,13.59c-2.26,38.16-9.43,73.3-2.8,111.35a97.33,97.33,0,0,0,3.07,16.66,124.66,124.66,0,0,0-7.86,14.06c-4.89,14.82-.32,26.08,7,38.91,9.52,16.58,14.2,17.82,7.53,37.72-5.35,16-9.21,24.55-9.62,42.22-.79,33.95-.42,67.81,1.42,101.72"/><line class="cls-24" x1="303.02" y1="379.83" x2="303.02" y2="379.83"/><line class="cls-25" x1="225.29" y1="4.08" x2="225.29" y2="4.08"/><path class="cls-26" d="M225.93,10.42c2.4,32,10.21,65.11,5,96.48q-1.53,13-1.81,26.19a209.92,209.92,0,0,0-9.55,23.08c-2.72,12.6,1.32,23.34,7.35,34.11,7.77,13.86,10,17.23,6,33.47-5.24,21.48-8.88,38.82-9.73,61.16-1.1,28.92.71,55.46,3.1,83.93"/><line class="cls-27" x1="226.6" y1="372.05" x2="226.6" y2="372.05"/><line class="cls-28" x1="153.59" y1="20.89" x2="153.59" y2="20.89"/><path class="cls-29" d="M154.26,26.79c2.09,13.47.49,26.12,3.62,39.6q3.7,11.79,7.47,23.57a46,46,0,0,1-5,26.86,191.13,191.13,0,0,0-2.5,26.7q-3.7,12.22-7.94,24.26c-2.49,12.56,1.08,24,5.74,35.44,5.81,14.31,6.76,19.33,3.15,34.74-4,16.93-6.64,31.75-7.53,49.17-1.64,31.92.05,62.72,2.88,94.48"/><line class="cls-30" x1="154.44" y1="384.97" x2="154.44" y2="384.97"/><line class="cls-31" x1="60.07" y1="21.83" x2="60.07" y2="21.83"/><path class="cls-32" d="M61,28.52C64.1,45.32,67.56,58.74,75.32,74c9.73,19.18,4,26.06,3.2,45.17q1.26,11.39,3.4,22.63A62.43,62.43,0,0,1,79,163.55a89.22,89.22,0,0,0,4.48,34.74c7.58,23.9-2.65,49-3.54,74.24-1.37,38.7-1.41,77.55,0,116.24"/><line class="cls-33" x1="80.19" y1="392.5" x2="80.19" y2="392.5"/><line class="cls-34" x1="2.96" y1="8.67" x2="2.96" y2="8.67"/><path class="cls-35" d="M3.69,15.85C3.26,33.16-1.66,50.1,3.16,67.26c5.28,18.81,16,23.25,8.09,43-5.2,13-5.66,29-7,42.92-1.49,14.92-.49,27.41,1.48,42.25,3.69,27.62-3.51,57.12-4.3,85.85C.45,315.21.71,349.08,2.6,383"/><line class="cls-36" x1="2.84" y1="386.58" x2="2.84" y2="386.58"/><path class="cls-37" d="M2.28,8.22C15.64,10.39,27.12,15.52,40,18.87c17,4.39,32.84,1.25,49.67-2.38C99.36,14.41,109.09,11.8,119,11c11.69-.94,14.37,2.83,24.41,6.78,16,6.28,30.45-8.58,45.1-13.72,15.35-5.38,25.15-2.12,40.45.48C243.38,7,258.5,5.32,273.25,5A1048.72,1048.72,0,0,1,381.52,8.2"/><path class="cls-38" d="M9.12,82.52c31.41,2.41,66.86,9.11,97.43.12,17.65-5.2,28.13-10.1,46.11-6,16.12,3.68,28.23-4,44.07-7.93,30.58-7.6,50,7.92,75.2,23,35.29,21.16,74.6-3.11,112.57-3.47"/><path class="cls-39" d="M3.12,155.31c33,2.2,68.68,9.19,101.34,3.28a124.51,124.51,0,0,1,22.05-3.39,48.1,48.1,0,0,1,19.42,8.67c14.52,2.84,25.81-2.52,39.64-6.73,27.85-8.46,54.83,1,84.31.05,33.92-1.06,68,3,101.64,6.86"/><path class="cls-40" d="M2.73,231.24c18.1,0,36.3-3.54,54.32-3,18.91.51,34.86,2.38,53.7-.8,17.79-3,25.34-1.52,41.53,5,15.9,6.44,28.8,2.55,44.94-3.31,15.86-5.75,22.46-9.13,38.78-5.91a198.61,198.61,0,0,0,44,3.68c37.94-.66,76.06,1.28,113.85,4.56"/><path class="cls-41" d="M.2,309.37c34.83-1.92,66.64-12.21,102.21-8.75,17,1.66,25.82,7.67,40.26,15.64,13.38,7.38,28,10.13,43.46,10.86,13.68.65,26.66-.71,40.37.13,18.29,1.12,28.88-6.91,44.66-15,32.4-16.55,73-8.24,108-4.89"/><path class="cls-42" d="M2.26,387.46c17.81.54,36.47-1,54,2.71,17.19,3.67,30.26,3.63,47-3.1,15.91-6.41,25.94-10.75,43-5.49s26.41,11,45.41,4.59c14.44-4.85,22.84-14.73,38.77-12.18,15.28,2.46,27.44,6.13,43.4,6.2a848.94,848.94,0,0,1,107.71,7.24"/><path class="cls-43" d="M381.26,8.18c2.39,34.8,3.28,69.62,2.89,104.5-.08,7.77,0,15.59-.4,23.35-.51,10.5-3.3,11.58-8.46,19.93-9,14.61-6.11,30.26,4.23,43.34s20.19,17.23,12.28,35.34c-7,16.1-12.13,23.28-12.51,41.87-.76,36.83-.32,73.58,1.91,110.36"/><path class="cls-44" d="M303,4.74c2.8,38.73-8.1,75.57-2.18,114.51.78,5.1,2.58,11.9,2.56,17,0,7.54-2,8-4.38,14.51-5.72,15.64-5.56,27.49,3.81,42.22,9.23,14.51,16.07,19.71,9,37.58-6.12,15.4-9.67,24.94-10.07,42-.86,35.93-.49,71.79,1.62,107.67"/><path class="cls-45" d="M225.34,3.76c1.59,15.14,1,30.31,3,45.41,2.18,17.14,7.82,32.31,4.91,49.81-2.93,17.66-5.41,33.15-11.16,50-5.23,15.3-2.61,25.8,4.08,39.92,8.13,17.19,11.56,19.78,5.54,39.44-6.46,21.07-7.77,39.78-8.57,61.82-1,28.42,1.72,54.32,3.59,82.28"/><path class="cls-46" d="M153.49,20.57c1.64,13.45.41,26.84,2.89,40.19,3.24,17.44,11.58,29.86,7,48.24-7.44,30.13-18.93,62.38-8.5,92.61,5.9,17.1,7.62,22,2.94,40.19-4.31,16.79-6,32.15-6.86,49.48-1.53,31.75.73,62.43,3.4,94"/><path class="cls-47" d="M59.84,21.47c2.84,16.44,4.6,31.23,12,46.37,8.26,16.82,11.86,26.48,8.68,45.1-2.5,14.59.58,28.77-.29,43.7-.89,15.27-1.6,24.92,2.43,40,4.36,16.39,4.09,22.22.73,38.93C80.71,249,80,262.32,79.57,276c-1.17,38.94-1.39,78,.42,116.94"/><path class="cls-48" d="M2.54,8.25c1.7,17.48-4.13,34.57-1.31,52,2.58,15.89,16,27.67,13.4,43.78-1,6.41-6.51,12.77-7.74,20.26-1.16,7.12-.11,14.78-1,22C3.64,163.42,2.28,175.93,5,193.62c4.3,27.82-3.14,56.94-3.95,85.66C.05,315.22.31,351.07,2.48,387"/><path class="cls-49" d="M2.15,8.21C15.54,10.37,27,15.49,40,18.85c17,4.4,32.81,1.29,49.64-2.34,9.66-2.08,19.41-4.71,29.3-5.5,11.66-.94,14.39,2.81,24.42,6.76,16,6.3,30.43-8.55,45.13-13.7C203.83-1.32,213.64,2,229,4.56c14.46,2.45,29.6.75,44.36.47A1044.5,1044.5,0,0,1,381.65,8.22"/><path class="cls-49" d="M3.19,18.45c13.34,2.1,25.29,6.77,38.3,9.88,17,4.07,32.43,1.38,49.32-2.38,9.53-2.12,19.15-4.88,28.9-5.87,11.44-1.17,14.58,2.3,24.57,6,16.14,6,30.33-8,45.23-13.08,15.31-5.2,25.21-2.34,40.45.52,14.47,2.71,29.67,2.16,44.47,2.72,36,1.34,72-.34,108,2.57"/><path class="cls-49" d="M2.84,28.56c32.42,4.65,56.12,14,89.34,6.16,9.37-2.19,18.79-5.1,28.36-6.32,11.17-1.42,14.65,1.74,24.57,5.22,16.17,5.67,30.18-7.45,45.24-12.36,15.23-5,25.19-2.57,40.28.78,14.13,3.15,28.93,4.2,43.39,5.88,36.37,4.23,72.56-.74,109,1.5"/><path class="cls-49" d="M.82,38.45c32.5,4.12,59,12.87,91.85,4.85,9.13-2.22,18.29-5.25,27.6-6.64,10.85-1.62,14.6,1.25,24.36,4.53,16.16,5.44,30.23-6.87,45.45-11.57,26.73-8.24,56,4.73,82.68,10.07,37,7.41,73.44-1.22,110.77.3"/><path class="cls-49" d="M0,48.33c32.58,3.45,61.91,11.54,94.4,3.19,19.51-5,31.58-9.3,50.62-3.15,16.06,5.18,30.14-6.28,45.41-10.72,27.79-8.08,54.63,6,81.25,13.91,37.43,11.12,74.1-1.66,112.25-1"/><path class="cls-49" d="M.54,58.11C33.13,60.94,65,68.39,97.13,59.68c18.74-5.08,30.56-9.94,49.12-4.17,15.91,5,29.91-5.66,45.18-9.84,28.88-7.92,53.21,7.09,79.55,17.65,37.28,14.94,74.65-2.08,113.26-2.28"/><path class="cls-49" d="M2.51,67.72c32.42,2.4,66.27,9.36,98,.34,18.48-5.24,29.22-9.57,47.7-5,16.32,4,28.95-4.89,44.82-9,29.84-7.77,51.85,7.85,77.75,20.75,36.66,18.26,75-2.5,113.67-3.2"/><path class="cls-49" d="M6.06,77.07c32,2.29,67.13,9,98.25-.08,17.9-5.24,28.46-10,46.58-5.74,16.19,3.8,28.51-4.3,44.36-8.29,30.46-7.67,50.64,8.09,76.05,22.66,35.79,20.52,75-3,113.29-3.61"/><path class="cls-49" d="M11.22,85.94c31.11,2.63,65.71,9.35,96.08.71,17.9-5.09,28.7-9.87,46.87-5.69,16.19,3.73,28.07-3.68,44-7.68,30.07-7.57,49.4,7.65,74.5,22.06,35.15,20.18,74.32-2.79,112-2.83"/><path class="cls-49" d="M15.5,95.12c31.84,3,65.15,9.37,96.34.74,20.43-5.66,28.42-5.9,48.57-2.19,13.75,2.54,26.66-5.56,39.65-8.79,31.14-7.75,49.15,8.87,76.5,20.68,35,15.13,71.55-3,108.05-2.51"/><path class="cls-49" d="M14,104.71c31.82,3,64.9,9.43,96.21,1.46,20.58-5.24,28.61-5,48.7-.91,13.87,2.83,26.92-5,40-8.37,30.3-7.68,50.32,7.7,78.29,17.29,35.38,12.14,71-1.83,107.33-.58"/><path class="cls-49" d="M8.23,113c31.14,3,64.84,10.08,95.59,3.27,18.2-4,29.15-7.22,47.06-1.92,16.28,4.82,28.45-1.75,44.68-6,28.58-7.57,51.31,5.58,78.66,13.68,36.56,10.84,72.84.19,110.15,2.23"/><path class="cls-49" d="M6.54,122.85c31.75,3,66.53,10.44,97.88,3.85,17.78-3.75,28.11-6.43,45.39-.75,16.05,5.28,28.48-1.25,44.57-5.63,28.32-7.71,52.51,4.72,80.55,10.55,36.43,7.58,72.48,1.07,109.24,3.83"/><path class="cls-49" d="M6.35,133.14c32.12,2.61,67.5,9.94,99.24,3.79,17.44-3.38,27.2-5.5,43.89.6,15.79,5.78,28.41-.71,44.37-5.19,28.08-7.89,53.47,3.77,82,7.47,36,4.66,72,2,108.08,5.41"/><path class="cls-49" d="M6.09,143.42c33.08,2.44,68.91,9.6,101.6,3.22a147.64,147.64,0,0,1,22.58-4,45.16,45.16,0,0,1,20.22,8.07c14.67,2.44,26-2.95,40-7,28.09-8.06,54.54,2.45,83.77,3.88,34.34,1.67,68.89,2.31,103.08,6"/><path class="cls-49" d="M3.4,153.32c33.06,2.26,68.81,9.32,101.49,3.33a126.94,126.94,0,0,1,22.1-3.48,47,47,0,0,1,19.52,8.56c14.56,2.79,25.83-2.59,39.69-6.77,27.88-8.41,54.86,1.15,84.31.56,34-.68,68.11,2.89,101.81,6.76"/><path class="cls-49" d="M2,163.4c33,2.14,68.81,8.91,101.32,2.83a116.62,116.62,0,0,1,22-3.45,47.21,47.21,0,0,1,19.41,8.6c14.57,3,25.72-2.11,39.63-6.41,27.92-8.63,54.49.76,84.05-.13,33.88-1,67.91,3,101.51,6.9"/><path class="cls-49" d="M2,173.55c33,1.9,69.14,8.16,101.6,2a109.32,109.32,0,0,1,22.09-3.41,46.85,46.85,0,0,1,19.43,8.67c14.67,3.1,25.72-1.65,39.76-6.09,17.38-5.5,22.25-4.72,39.3-1.84,15.19,2.56,29.39,1.93,44.71,1.52,33.92-.9,68,3,101.63,7"/><path class="cls-49" d="M3.06,183.7c33.18,1.51,69.76,7.05,102.39,1a102.29,102.29,0,0,1,22.22-3.28,47.31,47.31,0,0,1,19.53,8.81c14.82,3.3,25.84-1.19,40.08-5.8,17.48-5.66,22.24-5.29,39.49-2.39,15.29,2.57,29.44,2.2,44.89,1.86,34.15-.74,68.43,3.06,102.3,7"/><path class="cls-49" d="M4.65,193.85c32.74,1,68.89,5.45,101.05.13,17.55-2.9,25.27-2.6,41.59,3.21,16.52,5.88,26.68,2.45,44-3.52,15.4-5.3,22.92-7.65,38.75-3.81,14.81,3.6,28.45,3.38,43.65,3.09,35.49-.69,71.07,2.85,106.29,6.93"/><path class="cls-49" d="M6.39,204c18.16.32,36.52-2,54.63-.91,17,1,31.12,2.78,48.12-.21,17.64-3.09,25.73-2.67,42.13,3.19,16.82,6,27.09,2.78,44.76-3.47,15.56-5.5,23.19-8.34,39.33-4.56,15,3.52,28.8,3.4,44.21,3.06,35.95-.79,72,2.27,107.76,6.06"/><path class="cls-49" d="M7.77,213.85c17.91.12,36-2.77,53.83-2.08,18.76.72,34.53,2.42,53.18-.79,17.71-3,24.95-1.7,41.15,4.56,15.71,6.08,28.6,1.58,44.4-4.08s22.43-8.38,38.51-5.22c15,2.95,28.27,3.49,43.54,3.08,37.4-1,74.94,1.52,112.16,5.05"/><path class="cls-49" d="M4.77,223.45c18,0,36.15-3.27,54.09-2.73,18.86.57,34.83,2.37,53.62-.81,17.83-3,25.35-1.59,41.62,4.84,15.91,6.29,28.88,2.15,45-3.62,15.88-5.69,22.61-8.78,38.9-5.59,15.24,3,28.63,3.75,44.15,3.42,38-.79,76.12,1.27,113.93,4.55"/><path class="cls-49" d="M2.41,233.28c18.1,0,36.27-3.63,54.28-3.2,18.85.45,34.89,2.29,53.68-.75,17.75-2.88,25.32-1.34,41.44,5.23,15.8,6.44,28.73,2.67,44.82-3.08,15.8-5.64,22.47-9,38.72-5.88a192.22,192.22,0,0,0,44,3.39c37.89-1,76.05,1.14,113.79,4.42"/><path class="cls-49" d="M2,243.56c17.92-.11,35.77-4.12,53.58-3.92,18.38.21,34.66,1.84,53-.61,17.39-2.31,25-.2,40.57,6.47,15.08,6.45,28,3.53,43.74-1.35,15.44-4.8,22.39-7.78,38.09-5.12,15.5,2.63,28.34,2.36,43.94.87,37.36-3.57,75.54-.54,112.85,2.69"/><path class="cls-49" d="M1.54,253.84c18.19-.34,36.16-4.83,54.26-4.77,16.45.06,31.54,1.22,48.06-.39,17.34-1.69,25.7.1,41.3,6.82s26.87,5.62,44.22,1.1c15.3-4,23.62-7.15,39.32-4.44s28.69.43,44.42-2.16c35.49-5.84,72.75-2.05,108.41.85"/><path class="cls-49" d="M1.16,264.12c18.18-.46,36-5.39,54-5.58,16.23-.18,31.83.75,48.13-.26,17.31-1.07,25.82,1.48,41.21,8.42s27.05,6.34,44.1,2.87c15.12-3.08,24.17-5.91,39.52-3.62,16.16,2.42,28.52-.94,44.28-4.53,34.76-7.92,72.39-3.29,107.61-.4"/><path class="cls-49" d="M.82,274.4c18.23-.59,35.85-6,54-6.45,16-.41,32.13.31,48.21-.07,17.24-.41,25.84,2.94,41,10.14,14.77,7,27.25,7.2,44,4.79,14.84-2.14,24.78-4.7,39.73-2.7,16.58,2.22,28.65-2.41,44.41-7.05,34.27-10.09,72.62-4.49,107.74-1.5"/><path class="cls-49" d="M.52,284.68c18.29-.7,35.76-6.52,53.89-7.24,15.83-.64,32.38-.11,48.27.07,17.17.21,25.84,4.33,40.72,11.76,14.32,7.14,27.47,8,43.82,6.6,14.53-1.27,25.38-3.48,39.94-1.86,17.07,1.91,28.72-3.76,44.54-9.41,33.75-12.07,72.82-5.6,107.86-2.51"/><path class="cls-49" d="M.29,295C35,293.31,67.22,285.14,102.47,287c17.11.92,25.84,5.89,40.49,13.64,13.87,7.33,27.66,9.05,43.67,8.66,14.13-.35,26-2.07,40.13-.85,17.6,1.52,28.87-5.34,44.66-12.12,33.2-14.25,72.9-6.94,108-3.73"/><path class="cls-49" d="M.12,305.25c34.8-1.8,66.74-11.52,102.24-8.5,17,1.45,25.83,7.15,40.33,15.06,13.52,7.38,27.93,9.85,43.53,10.28,13.81.38,26.51-1.06,40.33-.13,18.1,1.23,28.9-6.51,44.7-14.22,32.64-15.93,73-7.88,108.05-4.56"/><path class="cls-49" d="M0,315.52c34.79-2,66.7-11.46,102.19-8.57,17,1.39,25.93,6.85,40.4,14.89,13.6,7.55,27.81,10.65,43.61,11.19,13.73.47,26.53-1.16,40.29-.34,18.1,1.08,28.89-6.61,44.66-14.38,32.8-16.16,72.85-8.07,108.08-4.59"/><path class="cls-49" d="M0,325.79c34.52-1.89,67-8.84,102-7.74,31.46,1,52.09,23.67,84.57,23.46,13.93-.09,26.07-2.63,40.08-1.67,17.69,1.21,28.67-5.25,44.53-12.18,33.47-14.63,72.72-7.07,108.08-3.4"/><path class="cls-49" d="M.1,336.06C34.16,334.74,67.75,331,102,329.62c31.69-1.27,53,21.22,85.25,19.17,14.22-.91,25.46-4.76,39.87-3.49,17.23,1.52,28.31-3.22,44.34-9,34.13-12.26,72.7-5.36,108-1.53"/><path class="cls-49" d="M.27,346.34c33.54-.54,68.46-.79,101.7-4.88,16.73-2.06,26.19-.89,41.59,5.84,15.14,6.62,27.19,10.35,44.41,8.11,14.49-1.88,24.8-7,39.65-5.57,16.78,1.65,27.83-.84,44.11-5.22,34.76-9.35,72.65-3.28,107.93.72"/><path class="cls-49" d="M.56,356.61c17.81.14,36.19-3.37,53.88-1.47,17.06,1.83,30.67,1.74,47.65-1.8,16.53-3.44,26.13-4,42,2.12,15.74,6,27.09,9.94,44.7,6.46,14.63-2.9,24.16-9.55,39.43-7.7,16.3,2,27.53,1.52,43.87-1.38,35.31-6.24,72.51-1.14,107.85,3"/><path class="cls-49" d="M1,366.89c17.76.48,36.31-2.17,53.89.54,17.33,2.67,30.36,2.79,47.46-2.38,16.21-4.9,26.17-6.76,42.49-1.28s27,9.75,45,5.08c14.64-3.8,23.63-11.86,39.21-9.65,15.86,2.24,27.39,3.63,43.66,2.11,35.72-3.34,72.3.74,107.78,5.09"/><path class="cls-49" d="M1.48,377.17c17.76.65,36.42-1.33,53.92,2s30.2,3.41,47.25-2.82c16-5.84,26.06-9.13,42.84-4s26.78,10,45.23,4.35c14.54-4.49,23.2-13.69,39-11.22,15.5,2.42,27.38,5.26,43.5,4.79,36-1.07,72.1,2.05,107.74,6.59"/><path class="cls-49" d="M2.13,387.45c17.81.55,36.52-1.05,54,2.68,17.22,3.67,30.25,3.7,47-3,15.92-6.41,26-10.78,43.06-5.53s26.43,11,45.44,4.6c14.45-4.86,22.85-14.74,38.8-12.17,15.28,2.46,27.46,6.12,43.43,6.19a850.18,850.18,0,0,1,107.78,7.26"/><path class="cls-49" d="M381.39,8.19c2.38,34.81,3.27,69.63,2.89,104.51-.09,7.77,0,15.59-.4,23.35-.51,10.5-3.3,11.57-8.47,19.93-9,14.61-6.11,30.26,4.24,43.33s20.19,17.23,12.28,35.34c-7,16.1-12.13,23.28-12.51,41.88-.76,36.83-.32,73.58,1.91,110.36"/><path class="cls-49" d="M371.08,7.3c2.78,34.74,3,70,2.75,104.84-.06,7.52.51,15.52-.26,23-1.05,10.18-3.09,11.31-8.17,19.68-8.89,14.63-6.08,30.15,4.09,43.33s19.66,17.51,11.86,35.58c-6.91,16-11.8,23.52-12.19,41.9-.77,36.67-.35,73.26,1.86,109.88"/><path class="cls-49" d="M360.77,6.56c2.84,35.06,1.93,70.93,2.1,106.13,0,7.08,1,15.2.11,22.19-1.28,9.62-4.07,10.78-7.66,19-7,16-7.05,28.43,4,43.17,10.12,13.46,19.12,17.81,11.43,35.84-6.79,15.91-11.49,23.74-11.88,41.92-.78,36.53-.37,73,1.82,109.45"/><path class="cls-49" d="M350.45,6c2.72,35.78-.08,72.09,1.14,108,.22,6.66,1.36,14.53.62,21.12-1,9.23-3.65,10.17-7,18.08-6.74,15.89-6.71,28.23,4,42.92,10,13.63,18.58,18.13,11,36.12-6.68,15.81-11.17,24-11.56,41.93-.8,36.4-.4,72.72,1.77,109.07"/><path class="cls-49" d="M340.14,5.48c2.5,36.67-2.32,73.32,0,110.16.4,6.23,1.73,13.77,1.2,19.93-.76,8.81-3.18,9.49-6.29,17-6.5,15.77-6.34,28,4.05,42.63,9.83,13.82,18.05,18.46,10.56,36.41-6.55,15.73-10.84,24.19-11.23,42-.82,36.28-.43,72.49,1.73,108.72"/><path class="cls-49" d="M329.84,5.14c2.32,37.59-4.68,74.44-1,112.19.56,5.79,2.08,13,1.76,18.77-.49,8.38-2.72,8.81-5.59,16-6.24,15.66-6,27.8,4.06,42.36,9.67,14,17.5,18.8,10.12,36.73-6.43,15.63-10.52,24.39-10.92,42-.82,36.18-.44,72.27,1.7,108.4"/><path class="cls-49" d="M319.53,4.9c2.29,38.34-6.74,75.31-1.84,113.79.69,5.42,2.38,12.4,2.22,17.77-.24,8-2.33,8.28-5,15.15-6,15.6-5.71,27.63,4,42.19,9.51,14.19,17,19.15,9.67,37-6.31,15.54-10.19,24.6-10.59,42-.84,36.08-.46,72.07,1.67,108.11"/><path class="cls-49" d="M309.22,4.77c2.52,38.74-8,75.69-2.23,114.57.77,5.17,2.56,12,2.51,17.13-.08,7.68-2.06,8-4.53,14.62-5.81,15.59-5.58,27.51,3.92,42.15,9.33,14.39,16.4,19.5,9.23,37.38-6.2,15.45-9.87,24.81-10.27,42-.85,36-.48,71.89,1.64,107.83"/><path class="cls-49" d="M298.91,4.74C301.52,43.41,291.26,80.11,297,119c.75,5.1,2.4,11.9,2.37,17-.06,7.52-1.93,8-4.3,14.58-5.66,15.64-5.54,27.4,3.79,42.17,9.18,14.54,15.83,19.74,8.79,37.59-6.1,15.46-9.61,25.2-10.06,42.32q-1.44,53.85,1.69,107.52"/><path class="cls-49" d="M288.58,4.8C291,42.71,283.27,79,287.7,117.12c1.54,13.25,1.43,21.23-2.67,32.95-5.52,15.79-5.63,27.32,3.64,42.32,9,14.6,15.35,20,8.35,37.7-6.25,15.85-9.47,26.57-10,44-1.15,35.37-.3,70.46,2,105.76"/><path class="cls-49" d="M278.25,4.93c1.46,21.23-2.24,41.61-3.1,62.8-.66,16,2.58,30.68,3.74,46.42,1,13.72.35,23.37-3.8,35.63-5.42,16.05-5.9,27.37,3.39,42.71,9,14.86,14.56,20.06,7.93,37.9-6.16,16.57-9.17,28.51-9.75,46.49-1.1,34.43-.21,68.45,2.07,102.81"/><path class="cls-49" d="M267.93,5.13c1.57,19.74-1.47,38.83-1.69,58.56-.18,15.91,3.66,31.07,4.14,46.83.44,14.45-.86,25.93-5.15,39-5.38,16.35-6.24,27.49,3.09,43.21,9,15.15,13.69,20.11,7.54,38.1-6,17.47-8.7,30.75-9.18,49.45-.87,33.28-.25,66.16,1.78,99.39"/><path class="cls-49" d="M257.61,5.4c1.71,18.17-.64,35.92-.2,54.12.39,15.89,5.11,31.4,4.55,47.25-.54,15.4-2,28.39-6.58,42.53C250,166,248.8,176.93,258.16,193c8.93,15.37,12.92,20.24,7.16,38.32-5.87,18.38-8.24,33.09-8.64,52.56-.66,32.08-.27,63.78,1.53,95.8"/><path class="cls-49" d="M247.28,5.72c1.8,16.71.1,33.21,1.16,49.94,1,15.9,6.46,31.66,4.95,47.62s-1.55,31.33-7.88,45.75c-6.9,15.71-6.07,29.14,2.5,44.19,8.86,15.54,12.19,20.37,6.78,38.49C249,251,247,267.08,246.7,287.33c-.49,30.8-.25,61.26,1.34,92"/><path class="cls-49" d="M237,5.94c1.84,15.88.65,31.7,2.39,47.57,1.85,16.87,7.07,32.25,4.7,49.41-2.43,17.57-4.61,32.17-10.41,48.82-5.33,15.29-2.64,25.94,4.24,40,8.39,17.14,12.25,19.56,6.15,39.41C237.69,252,236.46,270,236,291.75c-.66,28.43.72,55.8,2.33,84.05"/><path class="cls-49" d="M227.25,4.63c1.64,15.16,1,30.33,2.91,45.46,2.13,17.08,7.7,32.23,4.88,49.67-2.87,17.68-5.3,33.07-11.07,49.91-5.24,15.29-2.61,25.78,4.12,39.88,8.19,17.15,11.69,19.69,5.66,39.37-6.45,21.05-7.75,39.68-8.5,61.7-1,28.29,1.56,54.3,3.4,82.17"/><path class="cls-49" d="M217.08,1.06c1.75,15.05,1.3,30.15,3.44,45.17C223,63.4,229,78.3,226,95.92s-5.45,33.2-11,50c-5.1,15.31-2.49,25.79,4.07,40,8,17.27,11.16,20,5.35,39.65-6.31,21.3-7.76,40.42-8.64,62.63-1.15,29,.61,55.58,3.44,84.18"/><path class="cls-49" d="M207.18,0c1.84,14.61,1.42,29.36,3.67,43.92,2.49,16.1,9.5,31.63,6.82,48.14s-3.72,34.1-9.8,49.56c-6.43,16.35-6.09,29.12,2,45.08S220,208.14,215,226c-5.62,20.17-7.63,38.28-8.53,59.25-1.33,31.27.27,60.26,3.19,91.19"/><path class="cls-49" d="M197.69,1.13c1.8,14.61,1.22,29.37,3.49,43.92,2.56,16.29,9.94,31.87,7.15,48.59s-3.87,34.62-9.77,50.41c-6.24,16.72-5.89,29.62,2,46,7.75,16.11,9.87,22.06,5,39.9-5.38,19.62-7.46,37.33-8.4,57.7-1.49,32.37.53,62.24,3.75,94.25"/><path class="cls-49" d="M188.49,3.89c1.73,14.45.95,29,3.22,43.4C194.3,63.64,202,79.11,199.1,95.93s-4,34.93-9.79,50.95c-6.07,17-5.75,29.88,1.93,46.55,7.44,16.15,9.54,22.45,4.7,40.16-5.16,18.85-7.35,35.92-8.36,55.48-1.72,33.23.72,63.87,4.16,96.76"/><path class="cls-49" d="M179.29,7.91c1.7,14.11.79,28.38,3.09,42.41,2.69,16.3,10.74,31.49,7.63,48.32s-4.33,35.07-10,51.22c-6,17.08-5.72,29.91,1.7,46.8,7.09,16.11,9.07,22.66,4.3,40.15-4.9,18-7.06,34.34-8.05,53-1.78,33.61.65,65.15,3.87,98.52"/><path class="cls-49" d="M170.18,12.58c1.65,13.73.61,27.6,2.94,41.23,2.77,16.17,11.13,31,7.82,47.73s-4.64,35-10.17,51.12c-5.84,17.09-5.73,29.73,1.42,46.71,6.75,16,8.53,22.68,3.87,39.9s-6.75,32.85-7.7,50.63c-1.81,33.68.53,65.71,3.52,99.19"/><path class="cls-49" d="M161,17.4c1.66,13.77.53,27.5,3,41.17,3.16,17.61,11.2,30.55,6.87,49-4.1,17.5-6.15,34.68-11.33,52-4.67,15.59-2.21,26.86,3.06,41.78,6.09,17.27,8.14,22.22,3.22,40.69-4.57,17.19-6.38,32.84-7.31,50.64-1.68,32.26.66,63.32,3.37,95.42"/><path class="cls-49" d="M151.13,20.67c1.66,13.36.55,26.66,3.12,39.91,3.37,17.35,11.62,29.6,7.11,47.94-7.34,29.88-18.5,62.2-8.14,92.14,5.9,17.06,7.52,21.89,2.93,40-4.27,16.83-6,32.27-6.78,49.62-1.52,31.71.63,62.4,3.27,93.95"/><path class="cls-49" d="M140.29,15.72c1.57,13.81.72,27.45,3.57,41.1,3.61,17.28,11.48,29.51,7.16,47.78-4,16.82-5.05,33.39-9.33,50.23-3.92,15.42-2.07,25.8,3,40.6,5.78,17,7,21.7,2.73,39.68-4,16.82-5.58,32.43-6.33,49.71-1.4,32,0,63.34,2.26,95.22"/><path class="cls-49" d="M129.18,10.8c1.45,14.4.8,28.46,3.9,42.66,3.77,17.21,11.31,29.52,7.26,47.69-3.69,16.52-3.61,32.67-7.46,49.26-3.58,15.43-1.95,25.75,2.93,40.57,5.56,17,6.42,21.83,2.42,39.67-3.7,16.48-5.13,31.9-5.77,48.78-1.25,32.88-.78,65.54.84,98.39"/><path class="cls-49" d="M117.55,11.13c1.43,15.12,1.1,29.67,4.56,44.53,4,17,11.23,29.2,7.19,47.18-3.56,15.89-2.54,31.29-6.07,47.33-3.36,15.24-1.85,25.37,2.85,40.06,5.35,16.69,6,21.68,2.16,39.17-3.49,15.72-4.56,30.61-5,46.69-1,34.08-1.23,68.12-.06,102.21"/><path class="cls-49" d="M105.45,13c1.52,15.58,1.12,30.73,5.6,45.88,4.93,16.68,11.19,29.19,7.22,46.86-3.48,15.52-1.55,30.42-4.79,46.13-3.12,15.17-1.79,25.19,2.74,39.84,5.13,16.6,5.47,21.6,1.84,38.87-3.14,15-4.19,29.18-4.6,44.47-.95,35.62-1.28,71.24-.08,106.86"/><path class="cls-49" d="M90.85,16.22c2.2,15.89,2.82,31,8.42,46.21,6.25,17,11.33,28,8,46.26-2.78,15.28-.58,29.7-3.51,45.13-2.88,15.15-1.71,25.13,2.64,39.8,4.9,16.49,5.09,21.71,1.52,38.76-3,14.35-4,28.1-4.37,42.72-1,37-1.16,74.12.31,111.15"/><path class="cls-49" d="M76,19.49c2.9,16.07,4.43,31.1,11.29,46.11,7.67,16.78,12.16,27,8.86,45.54-2.62,14.69-.89,29.25-2.15,44.26-1.28,15.37-1.74,24.69,2.56,39.81,4.67,16.41,4.69,21.86,1.19,38.73-2.86,13.81-3.75,27.21-4.15,41.28-1.08,38.2-1.17,76.46.5,114.64"/><path class="cls-49" d="M63.59,21.29c3,16.34,4.88,31.2,12.29,46.27,8.25,16.77,12.16,26.51,9,45.14-2.5,14.58.23,28.82-.73,43.73-1,15.29-1.62,24.83,2.48,39.93,4.46,16.38,4.27,22.09.88,38.83-2.74,13.49-3.51,26.75-3.91,40.47-1.13,38.87-1.33,77.85.4,116.69"/><path class="cls-49" d="M54,21.28c3,16.27,4.43,31.26,11.76,46.31C73.82,84.23,78.36,93.78,75,112.32c-2.6,14.54.13,28.63-.75,43.54-.9,15.18-1.57,25,2.31,40,4.21,16.36,3.8,22.32.49,38.95C74.4,248.39,73.75,262,73.3,275.77,72,314.88,72,354.14,73.93,393.22"/><path class="cls-49" d="M45.68,20.22c3,16.13,3.61,31.59,10.52,46.73,7.51,16.45,13.64,26,10,44.36-2.87,14.45-.84,28.4-1.81,43.3-1,15.11-1.56,25.16,2,40.16,3.93,16.38,3.27,22.61.07,39.15-2.67,13.74-3.15,27.73-3.64,41.68-1.36,38.81-1,77.76,1.12,116.53"/><path class="cls-49" d="M38.64,18.45C41.38,34.6,41,50.51,47.24,65.91c6.68,16.31,14.32,26,10.29,44.05-3.21,14.33-2,28.05-3.06,43s-1.61,25.37,1.72,40.36c3.63,16.39,2.72,22.93-.39,39.37-2.61,13.82-2.9,28.13-3.41,42.15-1.37,37.94-.68,76,1.74,113.91"/><path class="cls-49" d="M32.3,16.24c2.33,16.44.55,32.88,6.05,48.81C44,81.39,53.06,91.51,48.7,109.28c-6.24,25.45-8.11,57.7-2.78,84,5.48,27.09-2.86,54.87-3.82,83.23-1.26,37-.64,74.1,1.74,111.06"/><path class="cls-49" d="M26.07,13.85c1.89,16.3-1.08,33,3.2,49,4.15,15.51,14.24,26.86,11.88,43.38-1,7-4.7,12.48-5.34,20.36-.59,7.12.64,14.28-.17,21.49-1.88,16.9-3.65,28.36,0,45.71,5.65,26.7-2.9,54.56-3.82,82.29-1.24,37.19-.78,74.41,1.64,111.55"/><path class="cls-49" d="M19.4,11.54C21,28.33,16.87,45.3,20.46,61.91c3.37,15.62,14.5,27.4,12,43.69-1,6.82-5.35,12.56-6.23,20.32-.81,7.11.33,14.46-.54,21.67-2.05,17-3.67,28.89-.34,46.42,5.18,27.22-3,55.7-3.89,83.9-1.14,36.56-.75,73.09,1.62,109.6"/><path class="cls-49" d="M11.7,9.58C13.23,26.8,8.09,43.91,11.16,61c2.83,15.76,15,27.71,12.47,43.85-1,6.62-6,12.67-7,20.3-1,7.11.06,14.62-.85,21.83-2.16,17.15-3.64,29.36-.63,47,4.72,27.62-3.09,56.54-3.94,85.09-1.07,36.11-.74,72.16,1.56,108.21"/><path class="cls-49" d="M2.41,8.24c1.71,17.48-4.13,34.57-1.32,52,2.58,15.89,16,27.66,13.42,43.78-1,6.4-6.52,12.77-7.74,20.26-1.16,7.12-.12,14.78-1,22-2.2,17.17-3.56,29.68-.83,47.37,4.28,27.83-3.14,56.94-3.95,85.67C-.08,315.21.18,351.06,2.35,387"/></g></g></svg>